<svg width="44" height="44" viewBox="0 0 44 44" fill="none" xmlns="http://www.w3.org/2000/svg">
<rect x="0.5" y="0.5" width="43" height="43" rx="7.5" fill="black"/>
<path d="M23.9999 22V29.88C24.0399 30.18 23.9399 30.5 23.7099 30.71C23.6174 30.8027 23.5075 30.8762 23.3865 30.9264C23.2655 30.9766 23.1359 31.0024 23.0049 31.0024C22.8739 31.0024 22.7442 30.9766 22.6233 30.9264C22.5023 30.8762 22.3924 30.8027 22.2999 30.71L20.2899 28.7C20.1808 28.5934 20.0979 28.463 20.0476 28.319C19.9973 28.175 19.981 28.0213 19.9999 27.87V22H19.9699L14.2099 14.62C14.0475 14.4115 13.9742 14.1473 14.0061 13.8849C14.0379 13.6226 14.1723 13.3835 14.3799 13.22C14.5699 13.08 14.7799 13 14.9999 13H28.9999C29.2199 13 29.4299 13.08 29.6199 13.22C29.8275 13.3835 29.9618 13.6226 29.9937 13.8849C30.0256 14.1473 29.9523 14.4115 29.7899 14.62L24.0299 22H23.9999Z" fill="white"/>
<rect x="0.5" y="0.5" width="43" height="43" rx="7.5" stroke="black"/>
</svg>
